<svg width="254" height="262" viewBox="0 0 254 262" fill="none" xmlns="http://www.w3.org/2000/svg">
<mask id="mask0_1_163" style="mask-type:alpha" maskUnits="userSpaceOnUse" x="6" y="3" width="241" height="255">
<path fill-rule="evenodd" clip-rule="evenodd" d="M123.502 4.61596C163.129 0.540084 208.166 5.08563 232.784 36.765C256.636 67.459 242.691 109.577 234.509 147.464C226.775 183.279 219.588 221.821 188.654 241.108C155.479 261.791 112.845 261.949 77.1257 245.586C41.9697 229.481 17.2396 196.516 8.71801 158.68C0.617052 122.71 12.7932 86.523 34.6841 57.141C56.3416 28.0722 87.4708 8.32207 123.502 4.61596Z" fill="url(#paint0_linear_1_163)"/>
</mask>
<g mask="url(#mask0_1_163)">
<path fill-rule="evenodd" clip-rule="evenodd" d="M123.502 4.61596C163.129 0.540084 208.166 5.08563 232.784 36.765C256.636 67.459 242.691 109.577 234.509 147.464C226.775 183.279 219.588 221.821 188.654 241.108C155.479 261.791 112.845 261.949 77.1257 245.586C41.9697 229.481 17.2396 196.516 8.71801 158.68C0.617052 122.71 12.7932 86.523 34.6841 57.141C56.3416 28.0722 87.4708 8.32207 123.502 4.61596Z" fill="#BDBDBD"/>
<path fill-rule="evenodd" clip-rule="evenodd" d="M123.502 4.61596C163.129 0.540084 208.166 5.08563 232.784 36.765C256.636 67.459 242.691 109.577 234.509 147.464C226.775 183.279 219.588 221.821 188.654 241.108C155.479 261.791 112.845 261.949 77.1257 245.586C41.9697 229.481 17.2396 196.516 8.71801 158.68C0.617052 122.71 12.7932 86.523 34.6841 57.141C56.3416 28.0722 87.4708 8.32207 123.502 4.61596Z" fill="#BABABA"/>
<path fill-rule="evenodd" clip-rule="evenodd" d="M123.502 4.61596C163.129 0.540084 208.166 5.08563 232.784 36.765C256.636 67.459 242.691 109.577 234.509 147.464C226.775 183.279 219.588 221.821 188.654 241.108C155.479 261.791 112.845 261.949 77.1257 245.586C41.9697 229.481 17.2396 196.516 8.71801 158.68C0.617052 122.71 12.7932 86.523 34.6841 57.141C56.3416 28.0722 87.4708 8.32207 123.502 4.61596Z" fill="url(#paint1_radial_1_163)"/>
</g>
<defs>
<linearGradient id="paint0_linear_1_163" x1="121.978" y1="4.083" x2="130.526" y2="257.352" gradientUnits="userSpaceOnUse">
<stop stop-color="#FDAB01" stop-opacity="0.3"/>
<stop offset="1" stop-color="#FDAB01" stop-opacity="0"/>
</linearGradient>
<radialGradient id="paint1_radial_1_163" cx="0" cy="0" r="1" gradientUnits="userSpaceOnUse" gradientTransform="translate(213.274 39.9427) rotate(124.582) scale(266.883 486.702)">
<stop stop-color="#FDAB01"/>
<stop offset="1" stop-color="#FDAB01" stop-opacity="0"/>
</radialGradient>
</defs>
</svg>
